<svg width="59" height="62" viewBox="0 0 59 62" fill="none" xmlns="http://www.w3.org/2000/svg">
<path d="M10.8818 52.7019L6.74072 3.875H52.2592L48.1126 52.6942L29.4723 58.125L10.8818 52.7019Z" fill="#1572B6"/>
<path d="M29.5 53.9749L44.5634 49.5864L48.1071 7.86819H29.5V53.9749Z" fill="#33A9DC"/>
<path d="M29.5 25.5576H37.0409L37.5609 19.4254H29.5V13.4366H43.7891L43.6526 15.0427L42.2532 31.5464H29.5V25.5576Z" fill="white"/>
<path d="M29.535 41.1099L29.5092 41.1176L23.163 39.3157L22.7574 34.5398H17.0363L17.8346 43.9425L29.5074 47.3486L29.535 47.3409V41.1099Z" fill="#EBEBEB"/>
<path d="M36.556 31.2926L35.8702 39.3119L29.5148 41.1137V47.3447L41.1968 43.9425L41.2834 42.9311L42.2735 31.2926H36.556Z" fill="white"/>
<path d="M29.5203 13.4366V19.4254H15.7549L15.6405 18.0788L15.3806 15.0427L15.2441 13.4366H29.5203Z" fill="#EBEBEB"/>
<path d="M29.5 25.5576V31.5464H23.2331L23.1188 30.1998L22.8607 27.1638L22.7242 25.5576H29.5Z" fill="#EBEBEB"/>
</svg>
