<svg width="60" height="63" viewBox="0 0 60 63" fill="none" xmlns="http://www.w3.org/2000/svg">
<g clip-path="url(#clip0)">
<path d="M40 42C45.5229 42 50 37.299 50 31.5C50 25.701 45.5229 21 40 21C34.4772 21 30 25.701 30 31.5C30 37.299 34.4772 42 40 42Z" fill="#19BCFE"/>
<path fill-rule="evenodd" clip-rule="evenodd" d="M20 63C22.6522 63 25.1957 61.8938 27.0711 59.9246C28.9464 57.9555 30 55.2848 30 52.5V42H20C17.3478 42 14.8043 43.1063 12.9289 45.0754C11.0536 47.0445 10 49.7152 10 52.5C10 55.2848 11.0536 57.9555 12.9289 59.9246C14.8043 61.8938 17.3478 63 20 63Z" fill="#09CF83"/>
<path fill-rule="evenodd" clip-rule="evenodd" d="M20 42H30V21H20C17.3478 21 14.8043 22.1062 12.9289 24.0754C11.0536 26.0445 10 28.7152 10 31.5C10 34.2848 11.0536 36.9555 12.9289 38.9246C14.8043 40.8937 17.3478 42 20 42Z" fill="#A259FF"/>
<path fill-rule="evenodd" clip-rule="evenodd" d="M20 21H30V0H20C17.3478 0 14.8043 1.10625 12.9289 3.07538C11.0536 5.04451 10 7.71523 10 10.5C10 13.2848 11.0536 15.9555 12.9289 17.9246C14.8043 19.8938 17.3478 21 20 21Z" fill="#F24E1E"/>
<path fill-rule="evenodd" clip-rule="evenodd" d="M40 21H30V0H40C42.6522 0 45.1957 1.10625 47.0711 3.07538C48.9464 5.04451 50 7.71523 50 10.5C50 13.2848 48.9464 15.9555 47.0711 17.9246C45.1957 19.8938 42.6522 21 40 21Z" fill="#FF7262"/>
</g>
<defs>
<clipPath id="clip0">
<rect width="60" height="63" fill="white"/>
</clipPath>
</defs>
</svg>
