<svg width="59" height="63" viewBox="0 0 59 63" fill="none" xmlns="http://www.w3.org/2000/svg">
<g clip-path="url(#clip0)">
<path d="M57.8873 28.6932L32.1273 1.18832C30.6447 -0.395782 28.2386 -0.395782 26.7542 1.18832L21.405 6.90016L28.1907 14.1459C29.7676 13.5769 31.5758 13.9586 32.8328 15.3008C34.0958 16.6516 34.4507 18.599 33.905 20.2882L40.4445 27.2713C42.0267 26.6893 43.8522 27.0658 45.1159 28.4174C46.882 30.3024 46.882 33.3577 45.1159 35.244C43.3493 37.1306 40.4881 37.1306 38.7206 35.244C37.3922 33.8241 37.064 31.7409 37.7365 29.9934L31.6378 23.4812L31.6371 40.6185C32.0792 40.8519 32.483 41.1602 32.8328 41.5315C34.5989 43.4165 34.5989 46.472 32.8328 48.3598C31.0663 50.2454 28.2036 50.2454 26.4396 48.3598C24.6735 46.472 24.6735 43.4168 26.4396 41.5317C26.8628 41.0796 27.3658 40.7215 27.9194 40.4782V23.1812C27.365 22.9396 26.8617 22.5813 26.4396 22.1277C25.1015 20.7009 24.7798 18.6044 25.4654 16.85L18.7763 9.70661L1.11316 28.566C-0.371055 30.1516 -0.371055 32.7211 1.11316 34.3054L26.8736 61.8108C28.3566 63.3952 30.7623 63.3952 32.2472 61.8108L57.8871 34.4331C59.3708 32.8483 59.3708 30.2773 57.8871 28.6932" fill="#DE4C36"/>
</g>
<defs>
<clipPath id="clip0">
<rect width="59" height="63" fill="white"/>
</clipPath>
</defs>
</svg>
