<svg width="59" height="62" viewBox="0 0 59 62" fill="none" xmlns="http://www.w3.org/2000/svg">
<path d="M10.8818 52.7019L6.73889 3.875H52.2611L48.1126 52.6942L29.4723 58.125L10.8818 52.7019Z" fill="#E44F26"/>
<path d="M29.5 53.9749L44.5634 49.5864L48.1071 7.86819H29.5V53.9749Z" fill="#F1662A"/>
<path d="M29.5 25.9761H21.9591L21.4391 19.8439H29.5V13.8551H15.2109L15.3474 15.4632L16.7468 31.9649H29.5V25.9761Z" fill="#EBEBEB"/>
<path d="M29.5 41.5284L29.4742 41.5361L23.128 39.7362L22.7224 34.9603H17.0012L17.7996 44.361L29.4742 47.7671L29.5 47.7594V41.5284Z" fill="#EBEBEB"/>
<path d="M29.4797 25.9761V31.9649H36.497L35.837 39.7323L29.4797 41.5342V47.7652L41.1636 44.361L41.2484 43.3496L42.587 27.5842L42.7271 25.9761H29.4797Z" fill="white"/>
<path d="M29.4797 13.8551V19.8439H43.2452L43.3595 18.4992L43.6195 15.4632L43.7559 13.8551H29.4797Z" fill="white"/>
</svg>
