<svg width="59" height="63" viewBox="0 0 59 63" fill="none" xmlns="http://www.w3.org/2000/svg">
<path d="M3.6875 3.9375H55.3125V59.0625H3.6875V3.9375Z" fill="#F5DE19"/>
<path d="M3.6875 3.9375H55.3125V59.0625H3.6875V3.9375Z" fill="#F5DE19"/>
<path d="M38.3666 47.0039C38.8065 47.958 39.4899 48.7599 40.338 49.3172C41.1862 49.8745 42.1646 50.1646 43.1604 50.1539C45.1701 50.1539 46.4552 49.0809 46.4552 47.5945C46.4552 45.8227 45.135 45.1887 42.9225 44.1551L41.7094 43.5999C38.2062 42.0072 35.8831 40.0129 35.8831 35.7958C35.8831 31.9115 38.6487 28.9524 42.9871 28.9524C44.3915 28.8442 45.7946 29.1798 47.0216 29.9175C48.2485 30.6551 49.2449 31.7622 49.8864 33.1006L46.0938 35.6895C45.8468 35.0259 45.4167 34.4581 44.8605 34.0615C44.3043 33.6649 43.6484 33.4582 42.9797 33.4688C42.6879 33.4376 42.3933 33.4716 42.1146 33.5687C41.8358 33.6659 41.5791 33.8239 41.3607 34.0328C41.1423 34.2418 40.9671 34.497 40.8462 34.7822C40.7253 35.0674 40.6613 35.3764 40.6584 35.6895C40.6584 37.2429 41.56 37.8729 43.6416 38.8395L44.8548 39.3947C48.9774 41.2827 51.3079 43.2062 51.3079 47.5315C51.3079 52.1955 47.8767 54.7509 43.2692 54.7509C41.4739 54.8731 39.6839 54.4379 38.1152 53.4978C36.5464 52.5577 35.266 51.153 34.4284 49.453L38.3666 47.0039ZM21.229 47.4528C21.9904 48.8959 22.6837 50.1165 24.3504 50.1165C25.9434 50.1165 26.9501 49.4511 26.9501 46.8622V29.2478H31.801V46.9311C31.801 52.2939 28.851 54.7352 24.5569 54.7352C23.0391 54.8238 21.5316 54.4199 20.2328 53.5765C18.9339 52.7332 17.9044 51.49 17.2797 50.0102L21.229 47.4528Z" fill="black"/>
</svg>
