<svg width="60" height="62" viewBox="0 0 60 62" fill="none" xmlns="http://www.w3.org/2000/svg">
<path fill-rule="evenodd" clip-rule="evenodd" d="M30 3.875C35.1918 3.875 40.2669 5.46585 44.5837 8.44639C48.9005 11.4269 52.265 15.6633 54.2518 20.6197C56.2386 25.5762 56.7585 31.0301 55.7456 36.2918C54.7327 41.5536 52.2327 46.3868 48.5616 50.1803C44.8904 53.9738 40.2131 56.5572 35.1211 57.6038C30.0291 58.6504 24.7511 58.1133 19.9546 56.0602C15.158 54.0072 11.0583 50.5305 8.17392 46.0698C5.28954 41.6092 3.75 36.3648 3.75 31C3.75 23.806 6.51562 16.9067 11.4384 11.8197C16.3613 6.7328 23.0381 3.875 30 3.875Z" fill="#CC6699"/>
<path d="M46.4662 15.4845C45.2775 10.6679 37.5469 9.09075 30.2306 11.7684C25.6487 13.3594 21.4154 15.8685 17.7731 19.1522C13.7437 23.0466 13.1006 26.4372 13.365 27.8535C14.3025 32.8523 20.9269 36.1189 23.6512 38.5427V38.5563C22.8487 38.9651 16.9687 42.0438 15.5887 45.1825C14.1375 48.4995 15.8194 50.8788 16.935 51.1984C18.61 51.6151 20.3692 51.4795 21.9658 50.8106C23.5624 50.1417 24.9163 48.9731 25.8375 47.4688C26.5988 46.2499 27.0752 44.8647 27.2288 43.4227C27.3824 41.9807 27.2091 40.5215 26.7225 39.1608C28.0347 38.8162 29.3988 38.7353 30.7406 38.9224C35.3456 39.4785 36.2494 42.4487 36.0769 43.6926C35.9957 44.1353 35.8233 44.5549 35.5712 44.9226C35.3192 45.2904 34.9935 45.5977 34.6162 45.8238C34.2937 46.0311 34.1944 46.1009 34.2225 46.2559C34.2619 46.4787 34.41 46.4709 34.6856 46.4225C35.3776 46.1973 35.9874 45.7607 36.4346 45.1703C36.8817 44.58 37.1453 43.8634 37.1906 43.1152C37.3012 40.2089 34.5994 36.9423 29.8144 37.0256C28.4246 36.9846 27.0378 37.181 25.71 37.6069C25.6435 37.5284 25.576 37.4509 25.5075 37.3744C22.5487 34.1136 17.0812 31.806 17.3119 27.4214C17.3962 25.8269 17.9325 21.6303 27.8119 16.5385C35.9119 12.3671 42.3956 13.516 43.5169 16.0599C45.1181 19.6947 40.0519 26.4469 31.6406 27.4214C30.7109 27.6165 29.7507 27.5927 28.8311 27.3519C27.9116 27.111 27.0563 26.6594 26.3287 26.0303C25.8862 25.5266 25.8206 25.5053 25.6556 25.5983C25.3875 25.7513 25.5581 26.1969 25.6556 26.4604C25.9777 27.0602 26.4124 27.5876 26.9344 28.0114C27.4563 28.4353 28.0549 28.7472 28.695 28.9288C32.0021 29.6714 35.4515 29.3189 38.5537 27.9213C43.6556 25.8889 47.6344 20.2217 46.4662 15.4845ZM24.7837 40.0346C25.1561 41.3612 25.1372 42.7724 24.7294 44.0878C24.6856 44.2247 24.6375 44.3604 24.585 44.4947C24.5325 44.629 24.4756 44.7582 24.4144 44.8822C24.0988 45.5494 23.6901 46.1649 23.2012 46.7093C21.6769 48.4278 19.545 49.0788 18.6319 48.5305C17.6456 47.9396 18.1387 45.5158 19.9069 43.5841C21.2655 42.1958 22.8318 41.0431 24.5456 40.1702L24.7837 40.0346Z" fill="white"/>
</svg>
